<svg viewBox="0 0 20 21" fill="none" xmlns="http://www.w3.org/2000/svg"><g clip-path="url(#a)" fill="#000"><path d="M17.9 9.75h-8.5v1.2h8.5l-2.1 2.11.9.9 3.1-3.1a.75.75 0 0 0 0-.9l-3.1-3.12-.9.9 2.1 2.01Zm-9.8 10.04v-6.22a.65.65 0 0 0-.6-.6h-4.4a1.23 1.23 0 0 0 1.2 1.2h2.5v5.02h-3.7a1.78 1.78 0 0 1-1.9-1.71v-14.05a1.78 1.78 0 0 1 1.7-1.8h3.9v5.01h-2.4a1.22 1.22 0 0 0-1.2 1.2h4.4a.65.65 0 0 0 .6-.6v-6.32a.86.86 0 0 0-.7-.6h-4.4a3 3 0 0 0-3.1 2.91v13.95a2.9 2.9 0 0 0 2.9 3.1h4.6a.5.5 0 0 0 .6-.5Z"/></g><defs><clipPath id="a"><path fill="#fff" transform="translate(0 .32)" d="M0 0h20v20.07h-20z"/></clipPath></defs></svg>