<svg xmlns="http://www.w3.org/2000/svg"><style>:root svg:not(:target){display:none}</style><svg viewBox="0 0 32 12" fill="none" id="arrow"><path stroke="#000" stroke-width="2" d="M0 6h26"></path><path d="m32 6-6.75 5.2v-10.4l6.75 5.2Z" fill="#000"></path></svg><svg viewBox="0 0 19 15" fill="none" id="check_icon"><path d="m7 11.72-5.7-6.45-1.05 1.19 6.75 7.63 11.25-12.72-1.05-1.28-10.2 11.63Z" fill="#68B738"></path></svg><svg viewBox="0 0 19 14" fill="none" id="email_icon"><path stroke="#222" stroke-width="1.3" d="M.65 5.85v8m17-8v8m-17.65-.65h18m-18-12h18m-.65 1.83-8.35 6.5-8.35-6.5v-1.53h16.7v1.53Z"></path></svg><svg viewBox="0 0 15 29" fill="none" id="facebook"><path d="M14 .75h-3.5c-1.55 0-3.03.71-4.12 1.97a7.3 7.3 0 0 0-1.71 4.77v4.05h-3.5v5.39h3.5v10.79h4.66v-10.8h3.5l1.17-5.38h-4.67v-4.05c0-.36.13-.7.35-.95.21-.25.51-.4.82-.4h3.5v-5.39Z" stroke="currentColor" stroke-linecap="round" stroke-linejoin="round"></path></svg><svg viewBox="0 0 27 34" fill="none" id="html_academy"><path d="m13.64.02-.14-.02-13.5 1.4v24.61l13.5 7.99 13.5-7.99v-24.6l-13.36-1.4Zm11.6 25-11.74 6.94-11.73-6.94v-10.1l11.68 6.93.02 1.25-8.02-4.75v1.23l8.04 4.8.02 1.3-8.05-4.76v1.22l8.04 4.81 8.12-4.83v-5.21l3.62-2.15v10.26Zm0-11.57-3.23 1.88-1.48.88-7.06-4.19-.01 1.23 6.04 3.57-.06.03-.13.07-.86.5-4.98-2.95-.01 1.22 3.93 2.33-.93.61-.02.01-2.97-1.74-.01 1.23 1.94 1.13-1.98 1.19-11.62-6.87 11.63-6.96 11.8 6.83Zm0-1.22-11.8-6.92-11.67 6.91v-9.23l11.73-1.23 11.73 1.23v9.24Z" fill="currentColor"></path></svg><svg viewBox="0 0 33 33" fill="none" id="icon_alarm"><ellipse cx="21.704" cy="11.33" rx="1.087" ry="1.085" fill="#fff"></ellipse><ellipse cx="10.831" cy="11.33" rx="1.087" ry="1.085" fill="#fff"></ellipse><ellipse cx="10.831" cy="24.351" rx="1.087" ry="1.085" fill="#fff"></ellipse><ellipse cx="16.268" cy="26.521" rx="1.087" ry="1.085" fill="#fff"></ellipse><ellipse cx="7.569" cy="17.775" rx="1.087" ry="1.085" fill="#fff"></ellipse><ellipse cx="24.966" cy="17.775" rx="1.087" ry="1.085" fill="#fff"></ellipse><ellipse cx="21.704" cy="24.351" rx="1.087" ry="1.085" fill="#fff"></ellipse><mask id="icon_alarm_0" fill="#fff"><path fill-rule="evenodd" clip-rule="evenodd" d="M21.42 29.06c.41-.2.9-.13 1.22.2l1.82 1.87a.68.68 0 0 0 .98-.95l-1.36-1.4c-.42-.43-.36-1.14.1-1.55a12.75 12.75 0 0 0 4.32-9.62c0-6.96-5.48-12.61-12.23-12.61-6.76 0-12.23 5.65-12.23 12.61 0 3.82 1.64 7.24 4.23 9.55.45.4.51 1.11.1 1.55l-1.44 1.47a.68.68 0 1 0 .97.95l1.88-1.93c.32-.33.82-.4 1.23-.2a11.88 11.88 0 0 0 10.41.06Zm-5.15-.23c6 0 10.87-5.02 10.87-11.22 0-6.19-4.87-11.2-10.87-11.2-6 0-10.88 5.01-10.88 11.2 0 6.2 4.87 11.22 10.88 11.22Zm-.76-11.53v-7.36a.78.78 0 1 1 1.56 0v8.18a.8.8 0 0 1-.8.8.76.76 0 0 1-.76-.75v-.87Z"></path></mask><path fill-rule="evenodd" clip-rule="evenodd" d="M21.42 29.06c.41-.2.9-.13 1.22.2l1.82 1.87a.68.68 0 0 0 .98-.95l-1.36-1.4c-.42-.43-.36-1.14.1-1.55a12.75 12.75 0 0 0 4.32-9.62c0-6.96-5.48-12.61-12.23-12.61-6.76 0-12.23 5.65-12.23 12.61 0 3.82 1.64 7.24 4.23 9.55.45.4.51 1.11.1 1.55l-1.44 1.47a.68.68 0 1 0 .97.95l1.88-1.93c.32-.33.82-.4 1.23-.2a11.88 11.88 0 0 0 10.41.06Zm-5.15-.23c6 0 10.87-5.02 10.87-11.22 0-6.19-4.87-11.2-10.87-11.2-6 0-10.88 5.01-10.88 11.2 0 6.2 4.87 11.22 10.88 11.22Zm-.76-11.53v-7.36a.78.78 0 1 1 1.56 0v8.18a.8.8 0 0 1-.8.8.76.76 0 0 1-.76-.75v-.87Z" fill="#fff"></path><path d="m9.78 29.2 2.87 2.79-2.87-2.8Zm1.23-.2 1.77-3.58-1.77 3.59Zm-3.1 2.13-2.87-2.8 2.86 2.8Zm-.98-.95 2.86 2.79-2.86-2.8Zm17.15-1.4-2.86 2.8 2.86-2.8Zm.1-1.55-2.63-3 2.63 3Zm-15.9-.07-2.67 2.99 2.66-2.99Zm.08 1.55-2.86-2.8 2.86 2.8Zm17.08 1.47 2.87-2.8-2.87 2.8Zm-.98.95 2.87-2.8-2.87 2.8Zm-1.82-1.88-2.87 2.8 2.87-2.8Zm-1.22-.2-1.73-3.6 1.73 3.6Zm-1.65 3 1.83 1.87 5.73-5.58-1.83-1.88-5.73 5.58Zm8.54-4.66-1.36-1.4-5.73 5.59 1.36 1.39 5.73-5.58Zm-1.5 2.85a16.75 16.75 0 0 0 5.69-12.63h-8a8.75 8.75 0 0 1-2.95 6.61l5.27 6.02Zm5.69-12.63c0-9.05-7.15-16.61-16.23-16.61v8c4.43 0 8.23 3.74 8.23 8.61h8Zm-16.23-16.61c-9.08 0-16.23 7.56-16.23 16.61h8c0-4.87 3.8-8.61 8.23-8.61v-8Zm-16.23 16.61c0 4.98 2.14 9.48 5.57 12.54l5.32-5.97a8.75 8.75 0 0 1-2.9-6.57h-8Zm5.46 8.3-1.44 1.48 5.73 5.58 1.44-1.47-5.73-5.59Zm5.27 8.01 1.88-1.93-5.73-5.58-1.88 1.93 5.73 5.58Zm-1.52-1.32a15.88 15.88 0 0 0 7.02 1.63v-8a7.88 7.88 0 0 1-3.5-.81l-3.52 7.18Zm7.02 1.63c2.45 0 4.79-.56 6.88-1.57l-3.46-7.2c-1.04.5-2.2.77-3.42.77v8Zm0-1.4c8.33 0 14.87-6.93 14.87-15.22h-8c0 4.1-3.2 7.22-6.87 7.22v8Zm14.87-15.22c0-8.28-6.54-15.2-14.87-15.2v8c3.68 0 6.87 3.1 6.87 7.2h8Zm-14.87-15.2c-8.33 0-14.88 6.92-14.88 15.2h8c0-4.1 3.2-7.2 6.88-7.2v-8Zm-14.88 15.2c0 8.29 6.55 15.22 14.88 15.22v-8c-3.68 0-6.88-3.11-6.88-7.22h-8Zm11.68-.31v.54h8v-.54h-8Zm0 .54v.28h8v-.28h-8Zm6.44.33v-.33h-8v.33h8Zm0-.33v-.54h-8v.54h8Zm0-.54v-3.8h-8v3.8h8Zm0-3.8v-3.56h-8v3.56h8Zm-6.44-3.56v3.56h8v-3.56h-8Zm0 3.56v3.8h8v-3.8h-8Zm3.22-8.34a4.78 4.78 0 0 0-4.78 4.78h8a3.22 3.22 0 0 1-3.22 3.22v-8Zm-3.22 12.96a3.2 3.2 0 0 1 3.2-3.2v8a4.8 4.8 0 0 0 4.8-4.8h-8Zm-.42 13.87c-1 1.02-2.4 1.1-3.4.6l3.53-7.17a5.06 5.06 0 0 0-5.86.99l5.73 5.58Zm-8.59 1.93a4.68 4.68 0 0 0 6.71 0l-5.73-5.58a3.32 3.32 0 0 1 4.75 0l-5.73 5.58Zm0-6.53a4.68 4.68 0 0 0 0 6.53l5.73-5.58a3.32 3.32 0 0 1 0 4.63l-5.73-5.58Zm22.89-1.4a2.93 2.93 0 0 1-.13 4.25l-5.27-6.02a5.08 5.08 0 0 0-.33 7.36l5.73-5.59Zm-10.66-12.83a3.22 3.22 0 0 1-3.22-3.22h8a4.78 4.78 0 0 0-4.78-4.78v8Zm-10.68 16.99a2.93 2.93 0 0 1-.11-4.24l5.73 5.59a5.07 5.07 0 0 0-.3-7.32l-5.32 5.97Zm22.7 3.77a4.68 4.68 0 0 0 0-6.53l-5.73 5.58a3.32 3.32 0 0 1 0-4.63l5.73 5.58Zm-6.71 0a4.68 4.68 0 0 0 6.7 0l-5.72-5.58a3.32 3.32 0 0 1 4.75 0l-5.73 5.58Zm-5.33-19a3.24 3.24 0 0 1 3.24 3.25h-8a4.76 4.76 0 0 0 4.76 4.76v-8Zm9.23 11.54a5.06 5.06 0 0 0-5.8-1l3.45 7.2c-1 .49-2.4.4-3.38-.62l5.73-5.58Z" fill="#fff" mask="url(#icon_alarm_0)"></path><path fill="#fff" d="M15.5 6v-4h1.5v4z"></path><rect x="8.5" y="2" width="15.5" height="1.5" rx=".75" fill="#fff"></rect></svg><svg viewBox="0 0 26 30" fill="none" id="icon_eat"><path fill-rule="evenodd" clip-rule="evenodd" d="M19.12.08a1 1 0 0 1 1.09.21c.9.91 2.1 2.88 3.06 5.92a42.6 42.6 0 0 1 1.73 12.79 1 1 0 0 1-1 1h-3.5v9a1 1 0 1 1-2 0v-28a1 1 0 0 1 .62-.92Zm1.38 17.92h2.5a39.62 39.62 0 0 0-1.64-11.19 22.4 22.4 0 0 0-.86-2.3v13.49Zm-14-18a1 1 0 0 1 1 1v28a1 1 0 1 1-2 0v-28a1 1 0 0 1 1-1Z" fill="#fff"></path><path fill-rule="evenodd" clip-rule="evenodd" d="M2 0a1 1 0 0 1 1 1v5.5c0 .56.2 1.32.7 1.92.48.56 1.31 1.08 2.8 1.08a1 1 0 1 1 0 2 5.41 5.41 0 0 1-4.33-1.8 5.07 5.07 0 0 1-1.17-3.2v-5.5a1 1 0 0 1 1-1Z" fill="#fff"></path><path fill-rule="evenodd" clip-rule="evenodd" d="M11 0a1 1 0 0 0-1 1v5.5c0 .56-.2 1.32-.7 1.92-.48.56-1.31 1.08-2.8 1.08a1 1 0 0 0 0 2 5.4 5.4 0 0 0 4.33-1.8 5.07 5.07 0 0 0 1.17-3.2v-5.5a1 1 0 0 0-1-1Z" fill="#fff"></path></svg><svg viewBox="0 0 80 84" fill="none" id="icon_gift"><path d="M65.66 36.76h-51.27a3.27 3.27 0 0 1-3.26-3.26v-9.78c0-1.8 1.46-3.26 3.26-3.26h51.27c1.8 0 3.26 1.46 3.26 3.26v9.78c0 1.8-1.46 3.26-3.26 3.26Zm-51.27-13.8a.77.77 0 0 0-.76.76v9.78c0 .42.34.76.76.76h51.27c.42 0 .76-.34.76-.76v-9.78a.77.77 0 0 0-.76-.76h-51.27Z" fill="#fff"></path><path d="M58.5 70.24h-36.96a6.29 6.29 0 0 1-6.28-6.29v-28.44a1.25 1.25 0 0 1 2.5 0v28.44a3.8 3.8 0 0 0 3.78 3.79h36.97a3.8 3.8 0 0 0 3.78-3.79v-28.44a1.25 1.25 0 0 1 2.5 0v28.44a6.29 6.29 0 0 1-6.28 6.29Z" fill="#fff"></path><path d="M40.02 70.24c-.69 0-1.25-.56-1.25-1.25v-33.48a1.25 1.25 0 0 1 2.5 0v33.48c0 .69-.56 1.25-1.25 1.25Zm-15.6-47.28a8.08 8.08 0 0 1 7.69-14.2c5.96 3.23 9.18 12.24 9.31 12.62l-2.36.83c-.03-.08-3.03-8.48-8.14-11.25a5.58 5.58 0 0 0-5.3 9.8l-1.2 2.2Z" fill="#fff"></path><path d="m55.62 22.96-1.19-2.2a5.54 5.54 0 0 0 2.25-7.55 5.53 5.53 0 0 0-7.55-2.25c-5.11 2.77-8.12 11.17-8.15 11.25l-2.36-.83c.14-.38 3.36-9.4 9.32-12.62a8.02 8.02 0 0 1 6.14-.64c2.07.62 3.77 2 4.8 3.9a8.03 8.03 0 0 1-3.26 10.94Zm7.92 30.54h-47.03a1.25 1.25 0 0 1 0-2.5h47.03a1.25 1.25 0 0 1 0 2.5Z" fill="#fff"></path></svg><svg viewBox="0 0 31 32" fill="none" id="icon_leaf"><g clip-path="url(#icon_leaf_0)"><path d="M28.34 2.77a.95.95 0 0 0-.9-.77h-.01c-4.94.03-16.95.92-21.8 8.38-2.51 3.88-2.73 8.91-.64 14.96l.07.13a25.93 25.93 0 0 0-1.04 3.32 1 1 0 0 0 .72 1.19l.2.02c.43 0 .81-.32.9-.79.03-.1 2.42-10.37 10.86-16.38.43-.3.55-.93.26-1.38a.9.9 0 0 0-1.3-.28c-4.79 3.4-7.74 8-9.47 11.65-1.24-4.57-.92-8.37.99-11.3 3.74-5.76 12.62-7.15 17.98-7.45-1.16 1.8-2.41 5.1-2.41 10.93 0 3.12-.83 5.52-2.47 7.14-2.62 2.6-6.88 2.83-10 2.58-.51-.04-.96.38-1 .93-.04.55.35 1.03.86 1.07.63.05 1.3.08 1.98.08 3.18 0 6.87-.66 9.43-3.2 2.04-2 3.07-4.9 3.07-8.6 0-9.1 3.22-11.1 3.23-11.1.4-.21.6-.68.5-1.13Z" fill="#fff"></path></g><defs><clipPath id="icon_leaf_0"><path fill="#fff" transform="translate(.5)" d="M0 0h30v32h-30z"></path></clipPath></defs></svg><svg viewBox="0 0 30 31" fill="none" id="icon_tub"><g clip-path="url(#icon_tub_1)" fill="#fff"><path d="M21.28 18.47c-1.71 0-3.1 1.48-3.1 3.3 0 1.83 1.4 3.3 3.1 3.3 1.7 0 3.08-1.47 3.08-3.3 0-1.82-1.38-3.3-3.08-3.3Zm0 5.02c-.89 0-1.6-.77-1.6-1.71 0-.95.71-1.72 1.6-1.72.88 0 1.6.77 1.6 1.72 0 .94-.72 1.7-1.6 1.7Zm-9.18-23.5c-1.75 0-3.18 1.52-3.18 3.4 0 1.89 1.43 3.41 3.19 3.41s3.18-1.52 3.18-3.4c0-1.89-1.42-3.41-3.18-3.41Zm0 5.48c-1.06 0-1.93-.93-1.93-2.07 0-1.15.87-2.07 1.94-2.07 1.07 0 1.93.92 1.93 2.07 0 1.14-.86 2.07-1.93 2.07Zm-3.37 12.14c-1.3 0-2.34 1.12-2.34 2.5 0 1.39 1.04 2.5 2.34 2.5 1.3 0 2.34-1.11 2.34-2.5 0-1.38-1.05-2.5-2.34-2.5Zm-.23 1.89c-.46 0 1.16 1.1 1.16.61 0-.49-1.62.39-1.16.39.46 0 1.06-.88 1.06-.39 0 .5-.6-.61-1.06-.61Zm10.5-9.74s3.04-.84 6.18 1.5c.9.76 1.76 1.33 1.15 2.12-.34.34-.64.66-1.72-.53a6.92 6.92 0 0 0-5.61-1.44c-1.13.24-1.96.55-3.56 2.15a8.27 8.27 0 0 1-6.5 2.5c-2.52-.24-3.84-1.27-5.24-2.55-.3-.42-.3-.87-.12-1.13.17-.26.83-.52 1.2-.13.37.4 2.1 1.97 3.82 2.07 1.72.1 3.44.21 5.74-1.96 2.3-2.18 3.46-2.34 4.66-2.6Z"></path><mask id="icon_tub_0"><path d="M29.15 26.82v-18.66c0-.58-.38-.65-.53-.66h-.5c-.5 0-.54.56-.54.74v18.6a2.68 2.68 0 0 1-.82 1.89c-.81.7-1.62.6-1.62.6s-20.18 0-20.66-.03a2.3 2.3 0 0 1-1.6-1c-.57-.8-.46-1.85-.46-1.85v-18.14c0-.83-.67-.8-.67-.8h-.3c-.54 0-.6.58-.6.77v18.54c0 1.33.46 2.4 1.55 3.33 1.1.94 2.38.86 2.38.86h20.58c.86 0 1.98-.42 2.91-1.56.93-1.14.88-2.63.88-2.63Z"></path></mask><path d="M29.15 26.82v-18.66c0-.58-.38-.65-.53-.66h-.5c-.5 0-.54.56-.54.74v18.6a2.68 2.68 0 0 1-.82 1.89c-.81.7-1.62.6-1.62.6s-20.18 0-20.66-.03a2.3 2.3 0 0 1-1.6-1c-.57-.8-.46-1.85-.46-1.85v-18.14c0-.83-.67-.8-.67-.8h-.3c-.54 0-.6.58-.6.77v18.54c0 1.33.46 2.4 1.55 3.33 1.1.94 2.38.86 2.38.86h20.58c.86 0 1.98-.42 2.91-1.56.93-1.14.88-2.63.88-2.63Z"></path><path d="M29.15 26.82h-20v.38l.01.39 19.99-.77Zm-.53-19.32.71-19.99h-.71v20Zm-1.04.74-20-.15v.15h20Zm0 .06h-20 20Zm0 18.54-19.99-.76v.02l19.99.74Zm-.82 1.89 13.03 15.16.44-.37.4-.4-13.87-14.4Zm-1.62.6 2.26-19.87-1.13-.13h-1.13v20Zm-20.66-.03-3.4 19.71 1.14.2 1.15.06 1.11-19.97Zm-1.6-1-16.35 11.52 16.35-11.52Zm-.46-1.85 19.9 2.1.1-1.05v-1.05h-20Zm-.67-18.95v20h.39l.38-.01-.77-19.99Zm-.9.78-20-.29v.29h20Zm1.55 21.87-13.02 15.18 13.02-15.18Zm2.38.86v-20h-.65l-.64.04 1.29 19.96Zm23.5-1.56 15.48 12.65-15.49-12.65Zm20.87-2.63v-18.66h-40v18.66h40Zm0-18.66a20.54 20.54 0 0 0-19.81-20.64l-1.43 39.97a19.46 19.46 0 0 1-18.76-19.33h40Zm-20.53-20.66h-.5v40h.5v-40Zm-.5 0a20.47 20.47 0 0 0-18.7 12.12c-1.8 4-1.83 7.56-1.84 8.47l40 .3c0 .73-.02 3.91-1.67 7.6a19.47 19.47 0 0 1-17.8 11.51v-40Zm-20.54 20.74v.05h40v-.04h-40Zm0 .05v.01h40-40Zm0 .02v10.51a8367.03 8367.03 0 0 1 0 7.25c0 .79 0 .45.01.01l39.97 1.52c.02-.51.02-1.37.02-1.45a1362.33 1362.33 0 0 0 0-7.34v-10.52l-40 .02Zm.01 17.79c.05-1.35.38-7.05 5.28-11.77l27.77 28.8a22.68 22.68 0 0 0 6.92-15.54l-39.97-1.5Zm6.13-12.54a17.51 17.51 0 0 1 12.43-4.2 19.23 19.23 0 0 1 1.17.1h.06s.02 0-2.24 19.87a2063.4 2063.4 0 0 0-2.24 19.88h.05a14.8 14.8 0 0 0 1.25.1 21.38 21.38 0 0 0 5.56-.45 22.49 22.49 0 0 0 10.03-4.97l-26.07-30.33Zm11.42 15.77v-20h-.87a17598.02 17598.02 0 0 1-18.68-.02c-1.07 0-.61 0 0 .03l-2.22 39.93c.97.06 7.17.06 11.6.06h10.16v-20Zm-17.26-19.74c.43.08 2.52.43 4.93 1.66 2.57 1.3 4.78 3.2 6.4 5.51l-32.67 23.07c5 7.08 11.87 8.72 14.55 9.18l6.79-39.42Zm11.34 7.18a17.34 17.34 0 0 1 3.13 11.4 18.52 18.52 0 0 1-.03.28v.08c0 .01 0 .02-19.9-2.08l-19.89-2.09v.01a19.73 19.73 0 0 0-.11 1.97 22.66 22.66 0 0 0 4.12 13.48l32.68-23.05Zm3.2 9.68v-18.14h-40v18.14h40Zm0-18.14a20.74 20.74 0 0 0-19.64-20.78 20.44 20.44 0 0 0-1.76-.01h-.02c-.01 0-.03 0 .75 19.98.77 19.99.76 19.99.75 19.99h-.07a28.57 28.57 0 0 1-1.65-.01 19.35 19.35 0 0 1-16-10.04 19.03 19.03 0 0 1-2.36-9.13h40Zm-20.67-20.8h-.3v40h.3v-40Zm-.3 0a20.52 20.52 0 0 0-18.62 11.84 21.17 21.17 0 0 0-1.97 8.64l40 .58c-.02.76-.05 4-1.8 7.72a19.44 19.44 0 0 1-17.62 11.21v-40Zm-20.6 20.77v18.54h40v-18.54h-40Zm0 18.54c0 7.06 2.92 13.7 8.53 18.51l26.05-30.35a15.63 15.63 0 0 1 4 5.37 15.72 15.72 0 0 1 1.42 6.47h-40Zm8.53 18.51a23.59 23.59 0 0 0 16.56 5.65h.06l.03-.01h.01c.01 0 .02 0-1.26-19.96-1.29-19.96-1.28-19.96-1.27-19.96h.04a429.61 429.61 0 0 1 .94-.04 17.44 17.44 0 0 1 3.65.36c1.88.4 4.64 1.34 7.29 3.6l-26.05 30.36Zm15.4-14.32v20h20.63l-.1-40h-20.53v20Zm20.63 20c7.1-.02 13.8-3.34 18.35-8.9l-30.97-25.31a16.17 16.17 0 0 1 12.51-5.8l.11 40Zm18.36-8.91a23.97 23.97 0 0 0 5.38-15.11 21.8 21.8 0 0 0-.02-.94l-19.98.77-19.99.76v-.04a18.38 18.38 0 0 1 .01-1.62 16.04 16.04 0 0 1 3.6-9.11l31 25.29Z" mask="url(#icon_tub_0)"></path></g><defs><clipPath id="icon_tub_1"><path fill="#fff" transform="translate(.5)" d="M0 0h29v31h-29z"></path></clipPath></defs></svg><svg viewBox="0 0 23 23" fill="none" id="instagram"><path d="M11.48.09c1.91 0 3.48.02 4.7.07 1.03.04 1.95.22 2.75.54a5.73 5.73 0 0 1 3.33 3.32c.31.8.5 1.73.54 2.76a144.26 144.26 0 0 1 0 9.4 8.63 8.63 0 0 1-.54 2.75 5.73 5.73 0 0 1-3.33 3.33c-.8.31-1.72.5-2.76.54a143.79 143.79 0 0 1-9.39 0 8.63 8.63 0 0 1-2.76-.54 5.73 5.73 0 0 1-3.32-3.33c-.32-.8-.5-1.72-.54-2.76-.05-1.21-.07-2.78-.07-4.7 0-1.9.02-3.47.07-4.69.04-1.03.22-1.95.54-2.76a5.73 5.73 0 0 1 3.32-3.32 8.3 8.3 0 0 1 2.76-.54c1.22-.05 2.78-.07 4.7-.07Zm0 1.48c-2 0-3.62.02-4.88.07-.8.03-1.55.17-2.24.43a4.1 4.1 0 0 0-2.3 2.29 7.3 7.3 0 0 0-.42 2.24c-.05 1.26-.07 2.89-.07 4.88 0 1.99.02 3.61.07 4.87.03.81.17 1.56.43 2.25a4.1 4.1 0 0 0 2.29 2.29c.69.25 1.43.4 2.24.43 1.26.04 2.89.06 4.88.06 1.99 0 3.61-.02 4.87-.06a7.37 7.37 0 0 0 2.25-.43 4.1 4.1 0 0 0 2.29-2.3c.25-.68.4-1.43.43-2.24.04-1.26.06-2.88.06-4.87 0-2-.02-3.62-.06-4.88a7.21 7.21 0 0 0-.43-2.24 4.1 4.1 0 0 0-2.3-2.3 7.21 7.21 0 0 0-2.24-.42 129.1 129.1 0 0 0-4.87-.07Zm0 14.47a4.4 4.4 0 0 0 3.22-1.34 4.4 4.4 0 0 0 1.34-3.22 4.4 4.4 0 0 0-1.34-3.23 4.4 4.4 0 0 0-3.22-1.33 4.4 4.4 0 0 0-3.23 1.33 4.4 4.4 0 0 0-1.33 3.23 4.4 4.4 0 0 0 1.33 3.22 4.4 4.4 0 0 0 3.23 1.34Zm0-10.4c1.61 0 3 .57 4.13 1.7a5.63 5.63 0 0 1 1.7 4.14c0 1.61-.56 3-1.7 4.13a5.63 5.63 0 0 1-4.13 1.7c-1.62 0-3-.56-4.14-1.7a5.63 5.63 0 0 1-1.7-4.13c0-1.62.57-3 1.7-4.14a5.63 5.63 0 0 1 4.14-1.7Zm7.45-.23a1.36 1.36 0 0 1-1.4 1.35c-.36 0-.68-.13-.94-.4a1.3 1.3 0 0 1-.4-.95 1.36 1.36 0 0 1 1.35-1.39c.38 0 .7.14.98.42.28.27.41.6.41.97Z" fill="currentColor"></path></svg><svg viewBox="0 0 24 18" fill="none" id="menu_button"><path stroke="#000" stroke-width="1.5" d="M0 1.25h24m-24 8h24m-24 8h24"></path></svg><svg viewBox="0 0 20 21" fill="none" id="phone_icon"><g clip-path="url(#phone_icon_0)" fill="#000"><path d="M17.9 9.75h-8.5v1.2h8.5l-2.1 2.11.9.9 3.1-3.1a.75.75 0 0 0 0-.9l-3.1-3.12-.9.9 2.1 2.01Zm-9.8 10.04v-6.22a.65.65 0 0 0-.6-.6h-4.4a1.23 1.23 0 0 0 1.2 1.2h2.5v5.02h-3.7a1.78 1.78 0 0 1-1.9-1.71v-14.05a1.78 1.78 0 0 1 1.7-1.8h3.9v5.01h-2.4a1.22 1.22 0 0 0-1.2 1.2h4.4a.65.65 0 0 0 .6-.6v-6.32a.86.86 0 0 0-.7-.6h-4.4a3 3 0 0 0-3.1 2.91v13.95a2.9 2.9 0 0 0 2.9 3.1h4.6a.5.5 0 0 0 .6-.5Z"></path></g><defs><clipPath id="phone_icon_0"><path fill="#fff" transform="translate(0 .32)" d="M0 0h20v20.07h-20z"></path></clipPath></defs></svg><svg viewBox="0 0 29 18" fill="none" id="vk"><path d="M.1 2.49c0-.86.54-1.32 1.65-1.38l4.25.02c.29 0 .48.13.57.38.44 1.26.93 2.34 1.47 3.26.54.9 1.25 1.96 2.13 3.15.07.15.2.23.37.23.13 0 .24-.06.31-.18l.09-.27.03-4.36c0-.3-.08-.5-.25-.6a2.4 2.4 0 0 0-.9-.22c-.34-.06-.5-.24-.5-.56 0-.07 0-.12.02-.15.4-1.09 1.54-1.63 3.43-1.63l1.6-.03c.72 0 1.32.16 1.8.48.47.32.7.82.7 1.5v5.72a.7.7 0 0 0 .38.12c.28 0 .53-.15.74-.45 2.1-2.58 3.23-4.3 3.4-5.18l.05-.13c.14-.25.36-.47.66-.65.3-.19.57-.31.8-.38a.63.63 0 0 1 .26-.05h4.42l.29.03a1 1 0 0 1 .88.47c.08.1.13.21.16.33a2.26 2.26 0 0 1 .07.56v.17a5.9 5.9 0 0 1-1.01 2.2c-.55.78-1.24 1.62-2.07 2.53-.84.9-1.36 1.5-1.57 1.78-.17.2-.26.39-.26.56 0 .13.08.28.23.45l4.17 4.63c.22.27.34.56.34.88 0 .38-.17.7-.51.95-.35.25-.76.4-1.23.43l-.49.03h-4.34a1 1 0 0 0-.11 0l-.11.02c-.42 0-.81-.16-1.18-.48a245.7 245.7 0 0 1-2.68-2.96 1.5 1.5 0 0 0-.4-.33l-.3 1.16-.27 1.08-.09.42c-.19.6-.58.94-1.2 1.06l-.4.03h-2.8c-1.57 0-3.15-.64-4.72-1.92a19.62 19.62 0 0 1-4.23-4.94 46.13 46.13 0 0 1-3.52-7.05 1.8 1.8 0 0 1-.14-.73Zm17.15 6.51c-.4 0-.76-.1-1.09-.29-.32-.19-.48-.45-.48-.79v-5.78c0-.34-.1-.58-.29-.72-.19-.14-.52-.21-1-.21l-1.62.05a3.7 3.7 0 0 0-1.86.37c.84.36 1.26.93 1.26 1.71v4.43c-.04.42-.23.77-.57 1.04a1.8 1.8 0 0 1-1.15.42c-.57 0-1-.24-1.3-.73a25.68 25.68 0 0 1-3.32-5.63l-.26-.66-3.8-.02c-.24 0-.38.01-.4.04-.04.02-.05.1-.05.21 0 .15.02.31.06.48l.6 1.4c1.6 3.64 3.33 6.51 5.2 8.6 1.88 2.1 3.72 3.15 5.53 3.15h2.85c.12 0 .2-.03.26-.09s.1-.17.14-.34l.06-.25.54-2.21c.15-.3.29-.5.4-.6.21-.19.46-.28.74-.28.46 0 .93.24 1.4.73l2.43 2.71c.15.22.31.33.48.33h4.72c.57 0 .85-.13.85-.38a.44.44 0 0 0-.08-.25l-4.14-4.55a1.65 1.65 0 0 1-.49-1.13c0-.4.15-.79.46-1.16.25-.33.73-.9 1.44-1.67.71-.78 1.34-1.51 1.87-2.19.53-.68.88-1.3 1.06-1.85l.08-.32a.35.35 0 0 1-.03-.17c0-.07 0-.14-.03-.19h-4.48c-.28.1-.51.25-.68.46l-.17.47c-.48 1.16-1.73 2.95-3.74 5.36-.4.34-.87.5-1.4.5Z" fill="currentColor"></path></svg></svg>