<svg xmlns="http://www.w3.org/2000/svg"><style>:root svg:not(:target){display:none}</style><svg viewBox="0 0 32 12" fill="none" id="arrow"><path stroke="#000" stroke-width="2" d="M0 6h26"></path><path d="m32 6-6.75 5.2v-10.4l6.75 5.2Z" fill="#000"></path></svg><svg viewBox="0 0 19 15" fill="none" id="check_icon"><path d="m7 11.72-5.7-6.45-1.05 1.19 6.75 7.63 11.25-12.72-1.05-1.28-10.2 11.63Z" fill="#68B738"></path></svg><svg viewBox="0 0 19 14" fill="none" id="email_icon"><path stroke="#222" stroke-width="1.3" d="M.65 5.85v8m17-8v8m-17.65-.65h18m-18-12h18m-.65 1.83-8.35 6.5-8.35-6.5v-1.53h16.7v1.53Z"></path></svg><svg viewBox="0 0 80 84" fill="none" id="icon_gift"><path d="M65.66 36.76h-51.27a3.27 3.27 0 0 1-3.26-3.26v-9.78c0-1.8 1.46-3.26 3.26-3.26h51.27c1.8 0 3.26 1.46 3.26 3.26v9.78c0 1.8-1.46 3.26-3.26 3.26Zm-51.27-13.8a.77.77 0 0 0-.76.76v9.78c0 .42.34.76.76.76h51.27c.42 0 .76-.34.76-.76v-9.78a.77.77 0 0 0-.76-.76h-51.27Z" fill="#fff"></path><path d="M58.5 70.24h-36.96a6.29 6.29 0 0 1-6.28-6.29v-28.44a1.25 1.25 0 0 1 2.5 0v28.44a3.8 3.8 0 0 0 3.78 3.79h36.97a3.8 3.8 0 0 0 3.78-3.79v-28.44a1.25 1.25 0 0 1 2.5 0v28.44a6.29 6.29 0 0 1-6.28 6.29Z" fill="#fff"></path><path d="M40.02 70.24c-.69 0-1.25-.56-1.25-1.25v-33.48a1.25 1.25 0 0 1 2.5 0v33.48c0 .69-.56 1.25-1.25 1.25Zm-15.6-47.28a8.08 8.08 0 0 1 7.69-14.2c5.96 3.23 9.18 12.24 9.31 12.62l-2.36.83c-.03-.08-3.03-8.48-8.14-11.25a5.58 5.58 0 0 0-5.3 9.8l-1.2 2.2Z" fill="#fff"></path><path d="m55.62 22.96-1.19-2.2a5.54 5.54 0 0 0 2.25-7.55 5.53 5.53 0 0 0-7.55-2.25c-5.11 2.77-8.12 11.17-8.15 11.25l-2.36-.83c.14-.38 3.36-9.4 9.32-12.62a8.02 8.02 0 0 1 6.14-.64c2.07.62 3.77 2 4.8 3.9a8.03 8.03 0 0 1-3.26 10.94Zm7.92 30.54h-47.03a1.25 1.25 0 0 1 0-2.5h47.03a1.25 1.25 0 0 1 0 2.5Z" fill="#fff"></path></svg><svg viewBox="0 0 24 18" fill="none" id="menu_button"><path stroke="#000" stroke-width="1.5" d="M0 1.25h24m-24 8h24m-24 8h24"></path></svg><svg viewBox="0 0 20 21" fill="none" id="phone_icon"><g clip-path="url(#phone_icon_0)" fill="#000"><path d="M17.9 9.75h-8.5v1.2h8.5l-2.1 2.11.9.9 3.1-3.1a.75.75 0 0 0 0-.9l-3.1-3.12-.9.9 2.1 2.01Zm-9.8 10.04v-6.22a.65.65 0 0 0-.6-.6h-4.4a1.23 1.23 0 0 0 1.2 1.2h2.5v5.02h-3.7a1.78 1.78 0 0 1-1.9-1.71v-14.05a1.78 1.78 0 0 1 1.7-1.8h3.9v5.01h-2.4a1.22 1.22 0 0 0-1.2 1.2h4.4a.65.65 0 0 0 .6-.6v-6.32a.86.86 0 0 0-.7-.6h-4.4a3 3 0 0 0-3.1 2.91v13.95a2.9 2.9 0 0 0 2.9 3.1h4.6a.5.5 0 0 0 .6-.5Z"></path></g><defs><clipPath id="phone_icon_0"><path fill="#fff" transform="translate(0 .32)" d="M0 0h20v20.07h-20z"></path></clipPath></defs></svg></svg>